# xmcd
#
# Track frame offsets:
#	182
#	17792
#	34875
#	66157
#
# Disc length: 1293 seconds
# Revision: 0
# Processed by: cddbd v1.5.2PL0 Copyright (c) Steve Scherf et al.
# Submitted via: dBpowerAMP V12.0
#
DISCID=2f050b04
DTITLE=D:Ream - Shoot Me With Your Love
DYEAR=1995
DGENRE=House
TTITLE0=Shoot Me With Your Love [Loveland’s 7” Pop’d Up Mix]
TTITLE1=Shoot Me With Your Love [D:REAMIX]
TTITLE2=Shoot Me With Your Love [Loveland’s 12” Pop’d Up Mix]
TTITLE3=Shoot Me With Your Love [RE:DEAMIX]
EXTD=
EXTT0=
EXTT1=
EXTT2=
EXTT3=
PLAYORDER=
